HIERARCHY
ROOT Hip
{
    OFFSET 0.0 0.0 0.0
    CHANNELS 6 Xposition Yposition Zposition Zrotation Xrotation Yrotation
    JOINT RightHip
    {
        OFFSET -6.542606559244554 0.0 0.0
        CHANNELS 3 Zrotation Xrotation Yrotation
        JOINT RightKnee
        {
            OFFSET 0.0 0.0 -23.028232539954956
            CHANNELS 3 Zrotation Xrotation Yrotation
            JOINT RightAnkle
            {
                OFFSET 0.0 0.0 -27.494365810787592
                CHANNELS 3 Zrotation Xrotation Yrotation
                End Site
                {
                    OFFSET 0.0 -10.997746324315036 0.0
                }
            }
        }
    }
    JOINT LeftHip
    {
        OFFSET 6.542606559244554 0.0 0.0
        CHANNELS 3 Zrotation Xrotation Yrotation
        JOINT LeftKnee
        {
            OFFSET 0.0 0.0 -23.028232539954956
            CHANNELS 3 Zrotation Xrotation Yrotation
            JOINT LeftAnkle
            {
                OFFSET 0.0 0.0 -27.494365810787592
                CHANNELS 3 Zrotation Xrotation Yrotation
                End Site
                {
                    OFFSET 0.0 -10.997746324315036 0.0
                }
            }
        }
    }
    JOINT Spine
    {
        OFFSET 0.0 0.0 19.10967155967023
        CHANNELS 3 Zrotation Xrotation Yrotation
        JOINT Thorax
        {
            OFFSET 0.0 0.0 22.024536852947453
            CHANNELS 3 Zrotation Xrotation Yrotation
            JOINT Neck
            {
                OFFSET 0.0 0.0 2.791699693308295
                CHANNELS 3 Zrotation Xrotation Yrotation
                JOINT Head
                {
                    OFFSET 0.0 0.0 9.454494295974149
                    CHANNELS 3 Zrotation Xrotation Yrotation
                    End Site
                    {
                        OFFSET -3.78179771838966 0.0 0.0
                    }
                }
            }
            JOINT LeftShoulder
            {
                OFFSET 11.790431298389517 0.0 0.0
                CHANNELS 3 Zrotation Xrotation Yrotation
                JOINT LeftElbow
                {
                    OFFSET 22.142788314077933 0.0 0.0
                    CHANNELS 3 Zrotation Xrotation Yrotation
                    JOINT LeftWrist
                    {
                        OFFSET 12.308158142996586 0.0 0.0
                        CHANNELS 3 Zrotation Xrotation Yrotation
                        End Site
                        {
                            OFFSET 4.923263257198636 0.0 0.0
                        }
                    }
                }
            }
            JOINT RightShoulder
            {
                OFFSET -11.790431298389517 0.0 0.0
                CHANNELS 3 Zrotation Xrotation Yrotation
                JOINT RightElbow
                {
                    OFFSET -22.142788314077933 0.0 0.0
                    CHANNELS 3 Zrotation Xrotation Yrotation
                    JOINT RightWrist
                    {
                        OFFSET -12.308158142996586 0.0 0.0
                        CHANNELS 3 Zrotation Xrotation Yrotation
                        End Site
                        {
                            OFFSET -4.923263257198636 0.0 0.0
                        }
                    }
                }
            }
            JOINT Nose
            {
                OFFSET 0.0 0.0 8.852197216540844
                CHANNELS 3 Zrotation Xrotation Yrotation
                End Site
                {
                    OFFSET -3.540878886616338 0.0 0.0
                }
            }
        }
    }
}
MOTION
Frames: 7
Frame Time: 0.03333333333333333
16.62866333091865 41.53183085745835 8.835708479206092 -21.638197273754436 -3.707473702759496 2.559959278100506 -21.927194450838382 -7.137088043511369 -0.43681431592861614 3.9855991444080288 20.98692471360485 0.4553873423572075 6.3611093629270335e-15 0.0 0.0 18.048196894027935 -3.9019620460584905 -0.11692285026001369 -1.3286471298154985 15.124003242864562 -0.046944510633335663 7.951386703658792e-16 -3.4483642953516864e-34 -4.969616689786745e-17 -2.7022565197471088e-17 10.233361353849297 3.01789577487844e-16 6.9802610188637875 0.05584914679951643 1.0297445342228455 -3.8812793947368585 -6.744941884615833 -15.059280567225905 0.0 0.0 9.93923337957349e-17 -66.87791817731828 32.55778929612191 -6.979607812994822 2.9225597993281378e-15 1.2548196289230451e-15 -133.52685155374778 -7.951386703658792e-16 0.0 0.0 102.4576160389666 47.52055110260964 4.350032964636466 -1.042103860473769e-14 -7.960699202257184e-15 46.680402992156836 0.0 0.0 -2.782985346280577e-15 0.0 0.0 0.0
17.32972228606311 43.282799132342404 8.422596598659567 -19.959651751267337 -3.686001832279355 2.0154905959171474 -24.95991959899283 -6.689007926492546 -0.8209497356448827 3.8921584098946953 18.238609393378145 0.5178593833271357 0.0 0.0 0.0 13.270274889954468 -4.377550438901109 -0.17733632485549744 -1.260015679612213 16.16692760941196 1.5528586230987267 0.0 0.0 9.93923337957349e-17 -3.1207797588939644e-15 9.917762057777436 -8.266471531136549e-16 4.7445852936448825 0.05151116884419066 1.4158043222046897 -4.468755181143369 -7.706545872150349 -23.27657415439889 0.0 0.0 5.963540027744094e-16 -70.2793397525604 30.961414815253853 -5.727998581189599 6.285334984017545e-15 9.591747974265096e-15 -133.85263702625934 1.5902773407317584e-15 0.0 0.0 102.82095886072973 48.25653974038689 4.034596579208063 1.4219251338711917e-14 -3.625644799607971e-16 50.2088635656246 0.0 0.0 1.4908850069360234e-15 0.0 0.0 0.0
17.153087887833745 42.84163619549764 8.526681665808733 -20.71496912782479 -3.761441950278402 1.1458687598550323 -27.197634436707684 -6.295773910595218 -0.5595263190204272 4.089289827397924 15.792231231730277 0.7096816756505475 0.0 0.0 3.975693351829396e-16 11.86113031941679 -4.745480321384953 -0.6244016540493135 -0.4328045288871985 18.27017561568891 1.9042395498750306 1.5902773407317582e-15 -1.3793457181406746e-33 -9.939233379573489e-17 6.41336538004782e-15 10.407800065507823 -2.8469103213810405e-16 2.310924894255225 -0.06203082766412028 1.8448328840289265 -1.3862619008707677 -7.25544795337766 -20.23980698053161 0.0 3.975693351829396e-16 0.0 -70.09363249808972 29.22755043646122 -4.71141624319593 -4.384608673709624e-15 -1.8804374391173427e-15 -133.5736896147537 3.1805546814635168e-15 0.0 0.0 105.84156122912609 48.06617439954575 3.4413998278925795 4.2307311937397606e-15 5.716690823825862e-15 53.862093866938565 0.0 0.0 0.0 1.7241821476758432e-34 4.969616689786745e-17 -3.975693351829396e-16
17.278005806686412 43.15363180053272 8.453071485106387 -19.631333906654447 -3.696863704847283 0.5491917016710155 -29.00334998356109 -6.665521428929407 -0.2716286582506996 2.5327080130716566 14.891533469844882 1.3071895837039023 0.0 0.0 0.0 9.335285003156775 -5.152624418383629 -1.2180904566296014 -0.3905677824133247 19.804388413051093 2.8113125484960277 0.0 -1.5902773407317584e-15 0.0 -3.2292593343377356e-15 10.368792040273416 3.9279951418332724e-16 -1.4506000572550664 -0.14735096023767585 1.5988472829716045 1.3590748751855455 -6.682247473267575 -19.526664798824076 0.0 0.0 -1.987846675914698e-16 -68.64753576668521 26.99083229131774 -4.132142329906522 -9.3241644642358e-16 6.490246059896471e-15 -135.57667873214496 -2.3854160110976376e-15 0.0 0.0 107.47050233067553 51.94655311278875 2.2799296482410454 1.219046186845129e-14 -7.328792606522914e-15 64.84210859829706 -2.2069531490250793e-31 -6.3611093629270335e-15 -3.975693351829396e-15 0.0 0.0 0.0
17.164291880624873 42.869619342685674 8.520079507035055 -19.457663698866057 -3.675395721427537 -0.2972627850185488 -29.54019493844833 -7.089199505162826 -0.06824833960762795 1.281149989913841 14.714055640030635 1.952615165076674 0.0 0.0 -3.975693351829396e-16 9.264634644311554 -5.289055958282795 -1.4248759576887229 -2.5435259459906576 20.573302678548156 3.235516549971637 0.0 0.0 0.0 3.2260885458102534e-15 9.995461309057834 -3.8188907094039024e-16 -2.979764858525141 -0.25795520057180243 2.1612632302677546 2.439889948970872 -6.632199802788231 -20.205777211486254 0.0 0.0 2.087239009710433e-15 -67.3766733559962 27.905813914546084 -3.5564143646254243 -1.2717696646499114e-14 1.6260453058085439e-15 -135.08249634725485 1.5902773407317584e-15 0.0 0.0 105.54150114165076 51.181480103355696 0.4045475467889031 -1.473028521433088e-14 -1.2132275485189367e-14 78.95165183588375 3.1805546814635168e-15 8.827812596100317e-32 3.1805546814635168e-15 0.0 0.0 0.0
17.28722524058446 43.176658303723954 8.447638764152963 -19.3945494354532 -3.674427195138173 -1.4643780578098933 -29.48633220941955 -6.887528826237747 -0.29217572541883585 0.052233513910278924 12.806184159805905 1.5632463621428425 0.0 0.0 0.0 9.118963080408385 -6.111692442054813 -1.2362038999452352 -3.7326488451450266 22.21451981851887 4.299648491484154 0.0 0.0 0.0 6.375631246731048e-15 10.28990049221902 1.2450882789930158e-16 -6.617681385979104 -0.32520049270398005 1.7924860257591868 5.773902330148702 -6.644647602384867 -19.21096453257116 0.0 0.0 4.969616689786745e-16 -62.06179700227342 29.1986562338737 -3.919124678108027 2.4138976806328286e-15 -5.885304606777241e-15 -135.39736071832232 -1.5902773407317584e-15 0.0 0.0 104.180379367632 56.1925004590163 -1.514419509000155 -2.4504225930420347e-14 -4.076091821765571e-15 98.4996310741502 -6.3611093629270335e-15 0.0 0.0 0.0 0.0 1.987846675914698e-16
17.012780439767695 42.491203627037024 8.609360409586147 -19.15874319604204 -3.8182164596416173 -2.56432003047295 -30.388499296338168 -6.130543143209916 -0.09690975382746521 -0.6203384868127364 10.594001299714066 1.6676172384978636 0.0 0.0 -9.93923337957349e-17 8.49953996316465 -6.219587261940892 -1.3597762219910507 -4.419871668797467 22.895581369107838 4.53331777486311 0.0 0.0 0.0 -1.0285618763639472e-16 10.611268129041772 1.107571898735198e-15 -6.702965247582218 -0.4976590563113877 2.706264242779768 5.013123935791634 -6.003631541804461 -20.27177630463058 0.0 0.0 -9.93923337957349e-16 -61.275760212540945 26.755492149455428 -4.96851514001118 8.466102030777144e-16 -6.501995502275247e-15 -137.09027870550096 2.3854160110976376e-15 6.620859447075238e-32 3.1805546814635168e-15 90.11401900261322 55.382209892215116 -1.8179698792231436 -1.6440541839443396e-14 -1.1590759565131649e-14 107.23839763173363 -3.1805546814635168e-15 0.0 0.0 0.0 -7.951386703658792e-16 0.0
